G04 #@! TF.GenerationSoftware,KiCad,Pcbnew,(6.0.8)*
G04 #@! TF.CreationDate,2022-10-31T11:18:21-04:00*
G04 #@! TF.ProjectId,Unified-Daughterboard,556e6966-6965-4642-9d44-617567687465,C3*
G04 #@! TF.SameCoordinates,Original*
G04 #@! TF.FileFunction,Soldermask,Top*
G04 #@! TF.FilePolarity,Negative*
%FSLAX46Y46*%
G04 Gerber Fmt 4.6, Leading zero omitted, Abs format (unit mm)*
G04 Created by KiCad (PCBNEW (6.0.8)) date 2022-10-31 11:18:21*
%MOMM*%
%LPD*%
G01*
G04 APERTURE LIST*
G04 Aperture macros list*
%AMRoundRect*
0 Rectangle with rounded corners*
0 $1 Rounding radius*
0 $2 $3 $4 $5 $6 $7 $8 $9 X,Y pos of 4 corners*
0 Add a 4 corners polygon primitive as box body*
4,1,4,$2,$3,$4,$5,$6,$7,$8,$9,$2,$3,0*
0 Add four circle primitives for the rounded corners*
1,1,$1+$1,$2,$3*
1,1,$1+$1,$4,$5*
1,1,$1+$1,$6,$7*
1,1,$1+$1,$8,$9*
0 Add four rect primitives between the rounded corners*
20,1,$1+$1,$2,$3,$4,$5,0*
20,1,$1+$1,$4,$5,$6,$7,0*
20,1,$1+$1,$6,$7,$8,$9,0*
20,1,$1+$1,$8,$9,$2,$3,0*%
G04 Aperture macros list end*
%ADD10C,1.448000*%
%ADD11RoundRect,0.176000X0.000000X-0.150000X0.000000X-0.150000X0.000000X0.150000X0.000000X0.150000X0*%
%ADD12RoundRect,0.051000X-0.125000X-0.275000X0.125000X-0.275000X0.125000X0.275000X-0.125000X0.275000X0*%
%ADD13RoundRect,0.051000X-0.150000X-0.275000X0.150000X-0.275000X0.150000X0.275000X-0.150000X0.275000X0*%
%ADD14RoundRect,0.301000X0.625000X-0.375000X0.625000X0.375000X-0.625000X0.375000X-0.625000X-0.375000X0*%
%ADD15RoundRect,0.051000X-0.450000X0.250000X-0.450000X-0.250000X0.450000X-0.250000X0.450000X0.250000X0*%
%ADD16RoundRect,0.301000X-0.625000X0.375000X-0.625000X-0.375000X0.625000X-0.375000X0.625000X0.375000X0*%
%ADD17RoundRect,0.301000X0.250000X0.350000X-0.250000X0.350000X-0.250000X-0.350000X0.250000X-0.350000X0*%
%ADD18O,1.202000X2.302000*%
%ADD19O,1.402000X2.002000*%
%ADD20C,0.752000*%
%ADD21RoundRect,0.201000X0.150000X0.575000X-0.150000X0.575000X-0.150000X-0.575000X0.150000X-0.575000X0*%
%ADD22RoundRect,0.126000X0.075000X0.650000X-0.075000X0.650000X-0.075000X-0.650000X0.075000X-0.650000X0*%
%ADD23C,3.602001*%
%ADD24RoundRect,0.051000X-0.300000X-0.775000X0.300000X-0.775000X0.300000X0.775000X-0.300000X0.775000X0*%
%ADD25RoundRect,0.051000X-0.600000X-0.900000X0.600000X-0.900000X0.600000X0.900000X-0.600000X0.900000X0*%
G04 APERTURE END LIST*
D10*
X70602500Y-71943000D03*
X82002500Y-61943000D03*
D11*
X74002500Y-66411400D03*
D12*
X74502500Y-66411400D03*
D13*
X75002500Y-66411400D03*
D12*
X75502500Y-66411400D03*
X76002500Y-66411400D03*
X74502500Y-65641400D03*
X76002500Y-65641400D03*
X75502500Y-65641400D03*
X74002500Y-65641400D03*
D13*
X75002500Y-65641400D03*
D14*
X81987500Y-64474000D03*
X81987500Y-67274000D03*
D15*
X71954500Y-66379000D03*
X71954500Y-67879000D03*
D16*
X67890500Y-64607000D03*
X67890500Y-61807000D03*
D17*
X70302500Y-66890000D03*
X67002500Y-66890000D03*
D18*
X70702500Y-63343000D03*
D19*
X70702500Y-59143000D03*
D20*
X72112500Y-62792000D03*
X77892500Y-62792000D03*
D19*
X79302500Y-59143000D03*
D21*
X78252500Y-64118000D03*
D22*
X76752500Y-64118000D03*
X76252500Y-64118000D03*
X75752500Y-64118000D03*
X75256500Y-64118000D03*
X73252500Y-64118000D03*
X73752500Y-64118000D03*
X74252500Y-64118000D03*
X74752500Y-64118000D03*
D18*
X79302500Y-63343000D03*
D21*
X77452500Y-64118000D03*
X71752500Y-64118000D03*
X72552500Y-64118000D03*
D23*
X68004500Y-58543000D03*
X82004500Y-58543000D03*
X68004500Y-71043000D03*
X82004500Y-71043000D03*
D24*
X75504500Y-68018000D03*
X76504500Y-68018000D03*
X74504500Y-68018000D03*
X73504500Y-68018000D03*
D25*
X72204500Y-71893000D03*
X77804500Y-71893000D03*
D15*
X77923500Y-67879000D03*
X77923500Y-66379000D03*
G36*
X71554928Y-71736350D02*
G01*
X71555500Y-71737751D01*
X71555500Y-72148245D01*
X71554500Y-72149977D01*
X71552500Y-72149977D01*
X71551581Y-72148808D01*
X71531905Y-72081796D01*
X71479562Y-72036441D01*
X71411009Y-72026584D01*
X71347996Y-72055361D01*
X71312072Y-72109544D01*
X71310281Y-72110435D01*
X71308614Y-72109330D01*
X71308424Y-72108161D01*
X71328799Y-71963188D01*
X71329079Y-71943100D01*
X71311012Y-71782028D01*
X71310873Y-71781629D01*
X71311248Y-71779665D01*
X71313137Y-71779007D01*
X71314413Y-71779843D01*
X71350695Y-71832905D01*
X71414489Y-71859864D01*
X71482735Y-71848054D01*
X71533770Y-71801215D01*
X71551573Y-71737215D01*
X71553001Y-71735814D01*
X71554928Y-71736350D01*
G37*
G36*
X69769343Y-71405750D02*
G01*
X69769892Y-71407412D01*
X69769757Y-71408418D01*
X69769700Y-71408695D01*
X69747541Y-71487263D01*
X69748286Y-71556817D01*
X69786351Y-71614676D01*
X69849656Y-71642771D01*
X69918078Y-71632185D01*
X69969704Y-71584747D01*
X69971656Y-71584312D01*
X69973009Y-71585784D01*
X69972738Y-71587303D01*
X69951703Y-71619942D01*
X69896304Y-71772152D01*
X69885441Y-71858137D01*
X69884232Y-71859730D01*
X69882248Y-71859479D01*
X69881468Y-71857677D01*
X69884109Y-71832555D01*
X69871597Y-71764134D01*
X69824282Y-71713556D01*
X69757135Y-71696588D01*
X69691459Y-71718620D01*
X69649207Y-71769929D01*
X69597714Y-71886404D01*
X69597582Y-71886653D01*
X69593687Y-71892898D01*
X69591922Y-71893839D01*
X69590225Y-71892780D01*
X69590166Y-71891019D01*
X69695002Y-71658291D01*
X69765985Y-71406603D01*
X69767418Y-71405208D01*
X69769343Y-71405750D01*
G37*
G36*
X75668160Y-65333893D02*
G01*
X75681952Y-65343109D01*
X75683115Y-65341369D01*
X75684909Y-65340484D01*
X75686060Y-65340945D01*
X75703452Y-65355478D01*
X75772170Y-65364104D01*
X75819788Y-65341318D01*
X75821782Y-65341472D01*
X75822314Y-65342011D01*
X75823048Y-65343109D01*
X75836840Y-65333893D01*
X75838836Y-65333762D01*
X75839947Y-65335425D01*
X75839614Y-65336667D01*
X75832267Y-65347662D01*
X75828500Y-65366599D01*
X75828500Y-65916201D01*
X75832267Y-65935138D01*
X75842880Y-65951020D01*
X75858762Y-65961633D01*
X75877699Y-65965400D01*
X76127301Y-65965400D01*
X76146238Y-65961633D01*
X76157233Y-65954286D01*
X76159229Y-65954155D01*
X76160340Y-65955818D01*
X76160007Y-65957060D01*
X76159497Y-65957824D01*
X76138716Y-66024188D01*
X76159506Y-66094990D01*
X76160007Y-66095740D01*
X76160138Y-66097735D01*
X76158475Y-66098847D01*
X76157233Y-66098514D01*
X76146238Y-66091167D01*
X76127301Y-66087400D01*
X75877699Y-66087400D01*
X75858762Y-66091167D01*
X75842880Y-66101780D01*
X75832267Y-66117662D01*
X75828500Y-66136599D01*
X75828500Y-66686201D01*
X75832267Y-66705138D01*
X75839614Y-66716133D01*
X75839745Y-66718129D01*
X75838082Y-66719240D01*
X75836840Y-66718907D01*
X75823048Y-66709691D01*
X75821885Y-66711431D01*
X75820091Y-66712316D01*
X75818940Y-66711855D01*
X75801548Y-66697322D01*
X75732830Y-66688696D01*
X75685212Y-66711482D01*
X75683218Y-66711328D01*
X75682686Y-66710789D01*
X75681952Y-66709691D01*
X75668160Y-66718907D01*
X75666164Y-66719038D01*
X75665053Y-66717375D01*
X75665386Y-66716133D01*
X75672733Y-66705138D01*
X75676500Y-66686201D01*
X75676500Y-66136599D01*
X75672733Y-66117662D01*
X75662120Y-66101780D01*
X75646238Y-66091167D01*
X75627301Y-66087400D01*
X75377699Y-66087400D01*
X75358762Y-66091167D01*
X75342880Y-66101780D01*
X75332267Y-66117662D01*
X75328500Y-66136599D01*
X75328500Y-66686201D01*
X75332267Y-66705138D01*
X75339614Y-66716133D01*
X75339745Y-66718129D01*
X75338082Y-66719240D01*
X75336840Y-66718907D01*
X75333575Y-66716726D01*
X75267211Y-66695946D01*
X75196411Y-66716735D01*
X75193160Y-66718907D01*
X75191164Y-66719038D01*
X75190053Y-66717375D01*
X75190386Y-66716133D01*
X75197733Y-66705138D01*
X75201500Y-66686201D01*
X75201500Y-66136599D01*
X75197733Y-66117662D01*
X75187120Y-66101780D01*
X75171238Y-66091167D01*
X75152301Y-66087400D01*
X74852699Y-66087400D01*
X74833762Y-66091167D01*
X74817880Y-66101780D01*
X74807267Y-66117662D01*
X74803500Y-66136599D01*
X74803500Y-66686201D01*
X74807267Y-66705138D01*
X74814614Y-66716133D01*
X74814745Y-66718129D01*
X74813082Y-66719240D01*
X74811840Y-66718907D01*
X74808575Y-66716726D01*
X74742211Y-66695946D01*
X74671411Y-66716735D01*
X74668160Y-66718907D01*
X74666164Y-66719038D01*
X74665053Y-66717375D01*
X74665386Y-66716133D01*
X74672733Y-66705138D01*
X74676500Y-66686201D01*
X74676500Y-66136599D01*
X74672733Y-66117662D01*
X74662120Y-66101780D01*
X74646238Y-66091167D01*
X74627301Y-66087400D01*
X74377699Y-66087400D01*
X74358762Y-66091167D01*
X74342880Y-66101780D01*
X74332267Y-66117662D01*
X74328500Y-66136599D01*
X74328500Y-66686201D01*
X74331119Y-66699370D01*
X74330476Y-66701264D01*
X74328514Y-66701654D01*
X74327494Y-66700871D01*
X74322823Y-66693880D01*
X74269447Y-66649273D01*
X74200761Y-66640646D01*
X74137654Y-66672977D01*
X74135656Y-66672877D01*
X74134745Y-66671097D01*
X74135079Y-66670086D01*
X74163218Y-66627973D01*
X74176500Y-66561201D01*
X74176500Y-66261599D01*
X74163218Y-66194827D01*
X74125509Y-66138391D01*
X74069073Y-66100682D01*
X74002500Y-66087440D01*
X73935927Y-66100682D01*
X73881303Y-66137180D01*
X73879307Y-66137311D01*
X73878196Y-66135648D01*
X73878436Y-66134560D01*
X73904071Y-66087515D01*
X73899073Y-66018466D01*
X73856564Y-65964790D01*
X73856273Y-65962811D01*
X73857841Y-65961569D01*
X73858522Y-65961586D01*
X73877699Y-65965400D01*
X74127301Y-65965400D01*
X74146238Y-65961633D01*
X74162120Y-65951020D01*
X74172733Y-65935138D01*
X74176500Y-65916201D01*
X74176500Y-65366599D01*
X74172733Y-65347662D01*
X74165386Y-65336667D01*
X74165255Y-65334671D01*
X74166918Y-65333560D01*
X74168160Y-65333893D01*
X74181952Y-65343109D01*
X74183115Y-65341369D01*
X74184909Y-65340484D01*
X74186060Y-65340945D01*
X74203452Y-65355478D01*
X74272170Y-65364104D01*
X74319788Y-65341318D01*
X74321782Y-65341472D01*
X74322314Y-65342011D01*
X74323048Y-65343109D01*
X74336840Y-65333893D01*
X74338836Y-65333762D01*
X74339947Y-65335425D01*
X74339614Y-65336667D01*
X74332267Y-65347662D01*
X74328500Y-65366599D01*
X74328500Y-65916201D01*
X74332267Y-65935138D01*
X74342880Y-65951020D01*
X74358762Y-65961633D01*
X74377699Y-65965400D01*
X74627301Y-65965400D01*
X74646238Y-65961633D01*
X74662120Y-65951020D01*
X74672733Y-65935138D01*
X74676500Y-65916201D01*
X74676500Y-65366599D01*
X74672733Y-65347662D01*
X74665386Y-65336667D01*
X74665255Y-65334671D01*
X74666918Y-65333560D01*
X74668160Y-65333893D01*
X74671425Y-65336074D01*
X74737789Y-65356854D01*
X74808589Y-65336065D01*
X74811840Y-65333893D01*
X74813836Y-65333762D01*
X74814947Y-65335425D01*
X74814614Y-65336667D01*
X74807267Y-65347662D01*
X74803500Y-65366599D01*
X74803500Y-65916201D01*
X74807267Y-65935138D01*
X74817880Y-65951020D01*
X74833762Y-65961633D01*
X74852699Y-65965400D01*
X75152301Y-65965400D01*
X75171238Y-65961633D01*
X75187120Y-65951020D01*
X75197733Y-65935138D01*
X75201500Y-65916201D01*
X75201500Y-65366599D01*
X75197733Y-65347662D01*
X75190386Y-65336667D01*
X75190255Y-65334671D01*
X75191918Y-65333560D01*
X75193160Y-65333893D01*
X75196425Y-65336074D01*
X75262789Y-65356854D01*
X75333589Y-65336065D01*
X75336840Y-65333893D01*
X75338836Y-65333762D01*
X75339947Y-65335425D01*
X75339614Y-65336667D01*
X75332267Y-65347662D01*
X75328500Y-65366599D01*
X75328500Y-65916201D01*
X75332267Y-65935138D01*
X75342880Y-65951020D01*
X75358762Y-65961633D01*
X75377699Y-65965400D01*
X75627301Y-65965400D01*
X75646238Y-65961633D01*
X75662120Y-65951020D01*
X75672733Y-65935138D01*
X75676500Y-65916201D01*
X75676500Y-65366599D01*
X75672733Y-65347662D01*
X75665386Y-65336667D01*
X75665255Y-65334671D01*
X75666918Y-65333560D01*
X75668160Y-65333893D01*
G37*
G36*
X75425192Y-63382459D02*
G01*
X75435925Y-63389630D01*
X75502288Y-63410411D01*
X75573089Y-63389621D01*
X75583808Y-63382459D01*
X75585804Y-63382328D01*
X75586915Y-63383991D01*
X75586582Y-63385233D01*
X75562976Y-63420561D01*
X75553500Y-63468199D01*
X75553500Y-64767801D01*
X75562976Y-64815439D01*
X75586582Y-64850767D01*
X75586713Y-64852763D01*
X75585050Y-64853874D01*
X75583808Y-64853541D01*
X75573075Y-64846370D01*
X75506712Y-64825589D01*
X75435911Y-64846379D01*
X75425192Y-64853541D01*
X75423196Y-64853672D01*
X75422085Y-64852009D01*
X75422418Y-64850767D01*
X75446024Y-64815439D01*
X75455500Y-64767801D01*
X75455500Y-63468199D01*
X75446024Y-63420561D01*
X75422418Y-63385233D01*
X75422287Y-63383237D01*
X75423950Y-63382126D01*
X75425192Y-63382459D01*
G37*
G36*
X76421193Y-63382460D02*
G01*
X76433925Y-63390967D01*
X76500289Y-63411747D01*
X76571089Y-63390958D01*
X76583807Y-63382460D01*
X76585803Y-63382329D01*
X76586914Y-63383992D01*
X76586581Y-63385234D01*
X76562976Y-63420561D01*
X76553500Y-63468199D01*
X76553500Y-64767801D01*
X76562976Y-64815439D01*
X76586581Y-64850766D01*
X76586712Y-64852762D01*
X76585049Y-64853873D01*
X76583807Y-64853540D01*
X76571075Y-64845033D01*
X76504711Y-64824253D01*
X76433911Y-64845042D01*
X76421193Y-64853540D01*
X76419197Y-64853671D01*
X76418086Y-64852008D01*
X76418419Y-64850766D01*
X76442024Y-64815439D01*
X76451500Y-64767801D01*
X76451500Y-63468199D01*
X76442024Y-63420561D01*
X76418419Y-63385234D01*
X76418288Y-63383238D01*
X76419951Y-63382127D01*
X76421193Y-63382460D01*
G37*
G36*
X73921193Y-63382460D02*
G01*
X73933925Y-63390967D01*
X74000289Y-63411747D01*
X74071089Y-63390958D01*
X74083807Y-63382460D01*
X74085803Y-63382329D01*
X74086914Y-63383992D01*
X74086581Y-63385234D01*
X74062976Y-63420561D01*
X74053500Y-63468199D01*
X74053500Y-64767801D01*
X74062976Y-64815439D01*
X74086581Y-64850766D01*
X74086712Y-64852762D01*
X74085049Y-64853873D01*
X74083807Y-64853540D01*
X74071075Y-64845033D01*
X74004711Y-64824253D01*
X73933911Y-64845042D01*
X73921193Y-64853540D01*
X73919197Y-64853671D01*
X73918086Y-64852008D01*
X73918419Y-64850766D01*
X73942024Y-64815439D01*
X73951500Y-64767801D01*
X73951500Y-63468199D01*
X73942024Y-63420561D01*
X73918419Y-63385234D01*
X73918288Y-63383238D01*
X73919951Y-63382127D01*
X73921193Y-63382460D01*
G37*
G36*
X74421193Y-63382460D02*
G01*
X74433925Y-63390967D01*
X74500289Y-63411747D01*
X74571089Y-63390958D01*
X74583807Y-63382460D01*
X74585803Y-63382329D01*
X74586914Y-63383992D01*
X74586581Y-63385234D01*
X74562976Y-63420561D01*
X74553500Y-63468199D01*
X74553500Y-64767801D01*
X74562976Y-64815439D01*
X74586581Y-64850766D01*
X74586712Y-64852762D01*
X74585049Y-64853873D01*
X74583807Y-64853540D01*
X74571075Y-64845033D01*
X74504711Y-64824253D01*
X74433911Y-64845042D01*
X74421193Y-64853540D01*
X74419197Y-64853671D01*
X74418086Y-64852008D01*
X74418419Y-64850766D01*
X74442024Y-64815439D01*
X74451500Y-64767801D01*
X74451500Y-63468199D01*
X74442024Y-63420561D01*
X74418419Y-63385234D01*
X74418288Y-63383238D01*
X74419951Y-63382127D01*
X74421193Y-63382460D01*
G37*
G36*
X75921193Y-63382460D02*
G01*
X75933925Y-63390967D01*
X76000289Y-63411747D01*
X76071089Y-63390958D01*
X76083807Y-63382460D01*
X76085803Y-63382329D01*
X76086914Y-63383992D01*
X76086581Y-63385234D01*
X76062976Y-63420561D01*
X76053500Y-63468199D01*
X76053500Y-64767801D01*
X76062976Y-64815439D01*
X76086581Y-64850766D01*
X76086712Y-64852762D01*
X76085049Y-64853873D01*
X76083807Y-64853540D01*
X76071075Y-64845033D01*
X76004711Y-64824253D01*
X75933911Y-64845042D01*
X75921193Y-64853540D01*
X75919197Y-64853671D01*
X75918086Y-64852008D01*
X75918419Y-64850766D01*
X75942024Y-64815439D01*
X75951500Y-64767801D01*
X75951500Y-63468199D01*
X75942024Y-63420561D01*
X75918419Y-63385234D01*
X75918288Y-63383238D01*
X75919951Y-63382127D01*
X75921193Y-63382460D01*
G37*
G36*
X73421193Y-63382460D02*
G01*
X73433925Y-63390967D01*
X73500289Y-63411747D01*
X73571089Y-63390958D01*
X73583807Y-63382460D01*
X73585803Y-63382329D01*
X73586914Y-63383992D01*
X73586581Y-63385234D01*
X73562976Y-63420561D01*
X73553500Y-63468199D01*
X73553500Y-64767801D01*
X73562976Y-64815439D01*
X73586581Y-64850766D01*
X73586712Y-64852762D01*
X73585049Y-64853873D01*
X73583807Y-64853540D01*
X73571075Y-64845033D01*
X73504711Y-64824253D01*
X73433911Y-64845042D01*
X73421193Y-64853540D01*
X73419197Y-64853671D01*
X73418086Y-64852008D01*
X73418419Y-64850766D01*
X73442024Y-64815439D01*
X73451500Y-64767801D01*
X73451500Y-63468199D01*
X73442024Y-63420561D01*
X73418419Y-63385234D01*
X73418288Y-63383238D01*
X73419951Y-63382127D01*
X73421193Y-63382460D01*
G37*
G36*
X74921192Y-63382460D02*
G01*
X74935925Y-63392303D01*
X75002289Y-63413083D01*
X75073089Y-63392294D01*
X75087808Y-63382459D01*
X75089804Y-63382328D01*
X75090915Y-63383991D01*
X75090582Y-63385233D01*
X75066976Y-63420561D01*
X75057500Y-63468199D01*
X75057500Y-64767801D01*
X75066976Y-64815439D01*
X75090582Y-64850766D01*
X75090713Y-64852762D01*
X75089050Y-64853873D01*
X75087808Y-64853540D01*
X75073075Y-64843697D01*
X75006711Y-64822917D01*
X74935911Y-64843706D01*
X74921192Y-64853541D01*
X74919196Y-64853672D01*
X74918085Y-64852009D01*
X74918418Y-64850767D01*
X74942024Y-64815439D01*
X74951500Y-64767801D01*
X74951500Y-63468199D01*
X74942024Y-63420561D01*
X74918418Y-63385234D01*
X74918287Y-63383238D01*
X74919950Y-63382127D01*
X74921192Y-63382460D01*
G37*
G36*
X76945527Y-63419931D02*
G01*
X76994369Y-63460749D01*
X77063057Y-63469376D01*
X77130620Y-63434800D01*
X77144854Y-63420566D01*
X77146786Y-63420048D01*
X77148200Y-63421462D01*
X77147931Y-63423091D01*
X77118685Y-63466860D01*
X77103500Y-63543199D01*
X77103500Y-64692801D01*
X77118685Y-64769140D01*
X77147931Y-64812909D01*
X77148062Y-64814905D01*
X77146399Y-64816016D01*
X77144854Y-64815434D01*
X77130601Y-64801181D01*
X77069552Y-64767847D01*
X77000498Y-64772785D01*
X76945435Y-64816353D01*
X76943456Y-64816644D01*
X76942215Y-64815076D01*
X76942232Y-64814395D01*
X76951500Y-64767801D01*
X76951500Y-63468199D01*
X76942282Y-63421856D01*
X76942925Y-63419962D01*
X76944887Y-63419572D01*
X76945527Y-63419931D01*
G37*
G36*
X73062785Y-63420924D02*
G01*
X73062768Y-63421605D01*
X73053500Y-63468199D01*
X73053500Y-64767801D01*
X73062718Y-64814144D01*
X73062075Y-64816038D01*
X73060113Y-64816428D01*
X73059473Y-64816069D01*
X73010631Y-64775251D01*
X72941943Y-64766624D01*
X72874380Y-64801200D01*
X72860146Y-64815434D01*
X72858214Y-64815952D01*
X72856800Y-64814538D01*
X72857069Y-64812909D01*
X72886315Y-64769140D01*
X72901500Y-64692801D01*
X72901500Y-63543199D01*
X72886315Y-63466860D01*
X72857069Y-63423091D01*
X72856938Y-63421095D01*
X72858601Y-63419984D01*
X72860146Y-63420566D01*
X72874399Y-63434819D01*
X72935448Y-63468153D01*
X73004502Y-63463215D01*
X73059565Y-63419647D01*
X73061544Y-63419356D01*
X73062785Y-63420924D01*
G37*
G36*
X77760146Y-63420566D02*
G01*
X77765323Y-63425743D01*
X77826372Y-63459077D01*
X77895531Y-63454131D01*
X77939628Y-63425792D01*
X77944854Y-63420566D01*
X77946786Y-63420048D01*
X77948200Y-63421462D01*
X77947931Y-63423091D01*
X77918685Y-63466860D01*
X77903500Y-63543199D01*
X77903500Y-64692801D01*
X77918685Y-64769140D01*
X77947931Y-64812909D01*
X77948062Y-64814905D01*
X77946399Y-64816016D01*
X77944854Y-64815434D01*
X77939677Y-64810257D01*
X77878628Y-64776923D01*
X77809469Y-64781869D01*
X77765372Y-64810208D01*
X77760146Y-64815434D01*
X77758214Y-64815952D01*
X77756800Y-64814538D01*
X77757069Y-64812909D01*
X77786315Y-64769140D01*
X77801500Y-64692801D01*
X77801500Y-63543199D01*
X77786315Y-63466860D01*
X77757069Y-63423091D01*
X77756938Y-63421095D01*
X77758601Y-63419984D01*
X77760146Y-63420566D01*
G37*
G36*
X72060146Y-63420566D02*
G01*
X72065323Y-63425743D01*
X72126372Y-63459077D01*
X72195531Y-63454131D01*
X72239628Y-63425792D01*
X72244854Y-63420566D01*
X72246786Y-63420048D01*
X72248200Y-63421462D01*
X72247931Y-63423091D01*
X72218685Y-63466860D01*
X72203500Y-63543199D01*
X72203500Y-64692801D01*
X72218685Y-64769140D01*
X72247931Y-64812909D01*
X72248062Y-64814905D01*
X72246399Y-64816016D01*
X72244854Y-64815434D01*
X72239677Y-64810257D01*
X72178628Y-64776923D01*
X72109469Y-64781869D01*
X72065372Y-64810208D01*
X72060146Y-64815434D01*
X72058214Y-64815952D01*
X72056800Y-64814538D01*
X72057069Y-64812909D01*
X72086315Y-64769140D01*
X72101500Y-64692801D01*
X72101500Y-63543199D01*
X72086315Y-63466860D01*
X72057069Y-63423091D01*
X72056938Y-63421095D01*
X72058601Y-63419984D01*
X72060146Y-63420566D01*
G37*
G36*
X78702743Y-63268335D02*
G01*
X78703500Y-63269902D01*
X78703500Y-63892868D01*
X78723928Y-64048028D01*
X78783765Y-64192490D01*
X78861065Y-64293228D01*
X78861326Y-64295211D01*
X78859739Y-64296429D01*
X78858103Y-64295898D01*
X78840709Y-64279421D01*
X78840411Y-64279066D01*
X78831518Y-64265501D01*
X78778539Y-64220434D01*
X78709899Y-64211202D01*
X78647164Y-64240546D01*
X78610169Y-64299280D01*
X78605481Y-64332977D01*
X78604252Y-64334554D01*
X78602271Y-64334279D01*
X78601500Y-64332701D01*
X78601500Y-63543199D01*
X78586315Y-63466860D01*
X78543186Y-63402314D01*
X78504332Y-63376352D01*
X78503447Y-63374558D01*
X78504558Y-63372895D01*
X78506288Y-63372876D01*
X78524261Y-63381257D01*
X78593027Y-63391701D01*
X78656253Y-63363430D01*
X78694239Y-63305341D01*
X78699521Y-63269610D01*
X78700764Y-63268042D01*
X78702743Y-63268335D01*
G37*
G36*
X71305419Y-63269339D02*
G01*
X71325096Y-63336354D01*
X71377439Y-63381709D01*
X71446138Y-63391586D01*
X71480614Y-63381315D01*
X71498713Y-63372875D01*
X71500705Y-63373050D01*
X71501550Y-63374862D01*
X71500669Y-63376351D01*
X71461814Y-63402314D01*
X71418685Y-63466860D01*
X71403500Y-63543199D01*
X71403500Y-64331121D01*
X71402500Y-64332853D01*
X71400500Y-64332853D01*
X71399581Y-64331684D01*
X71379905Y-64264672D01*
X71327562Y-64219317D01*
X71259009Y-64209460D01*
X71195808Y-64238323D01*
X71182716Y-64251544D01*
X71164571Y-64272903D01*
X71162688Y-64273575D01*
X71161163Y-64272281D01*
X71161460Y-64270390D01*
X71221235Y-64192490D01*
X71281072Y-64048028D01*
X71301500Y-63892868D01*
X71301500Y-63269902D01*
X71302500Y-63268170D01*
X71304500Y-63268170D01*
X71305419Y-63269339D01*
G37*
G36*
X71927297Y-63112189D02*
G01*
X71996937Y-63147672D01*
X72095259Y-63163245D01*
X72096813Y-63164503D01*
X72096500Y-63166479D01*
X72095474Y-63167149D01*
X72036798Y-63183216D01*
X71990493Y-63234717D01*
X71979382Y-63303080D01*
X72007095Y-63366828D01*
X72014402Y-63374822D01*
X72024934Y-63385354D01*
X72025452Y-63387286D01*
X72024038Y-63388700D01*
X72022409Y-63388431D01*
X71978640Y-63359185D01*
X71902301Y-63344000D01*
X71855963Y-63344000D01*
X71854231Y-63343000D01*
X71854231Y-63341000D01*
X71855400Y-63340081D01*
X71922415Y-63320404D01*
X71967770Y-63268061D01*
X71977627Y-63199507D01*
X71948789Y-63136364D01*
X71925067Y-63115472D01*
X71924428Y-63113577D01*
X71925750Y-63112076D01*
X71927297Y-63112189D01*
G37*
G36*
X78081491Y-63111381D02*
G01*
X78082399Y-63113163D01*
X78081886Y-63114398D01*
X78037401Y-63163655D01*
X78026138Y-63231991D01*
X78053608Y-63295568D01*
X78111207Y-63334280D01*
X78148434Y-63340023D01*
X78149993Y-63341276D01*
X78149688Y-63343252D01*
X78148129Y-63344000D01*
X78102699Y-63344000D01*
X78026360Y-63359185D01*
X77982591Y-63388431D01*
X77980595Y-63388562D01*
X77979484Y-63386899D01*
X77980066Y-63385354D01*
X77990024Y-63375396D01*
X78023358Y-63314347D01*
X78018418Y-63245265D01*
X77976930Y-63189844D01*
X77910265Y-63166975D01*
X77908951Y-63165467D01*
X77909600Y-63163575D01*
X77910601Y-63163108D01*
X78008063Y-63147672D01*
X78079494Y-63111276D01*
X78081491Y-63111381D01*
G37*
G36*
X69806286Y-58551174D02*
G01*
X69807177Y-58552376D01*
X69824637Y-58619587D01*
X69875528Y-58666565D01*
X69943738Y-58678571D01*
X70007668Y-58651771D01*
X70041648Y-58608195D01*
X70061847Y-58564877D01*
X70063486Y-58563730D01*
X70065298Y-58564575D01*
X70065523Y-58566449D01*
X70025475Y-58669168D01*
X70003537Y-58835796D01*
X70003500Y-58843010D01*
X70003500Y-58983141D01*
X70002500Y-58984873D01*
X70000500Y-58984873D01*
X69999581Y-58983704D01*
X69979904Y-58916689D01*
X69927561Y-58871334D01*
X69859008Y-58861477D01*
X69796014Y-58890246D01*
X69758041Y-58950034D01*
X69700656Y-59153506D01*
X69700560Y-59153771D01*
X69700150Y-59154699D01*
X69698536Y-59155879D01*
X69696706Y-59155071D01*
X69696396Y-59153348D01*
X69767379Y-58901661D01*
X69801036Y-58637102D01*
X69803242Y-58552827D01*
X69804287Y-58551121D01*
X69806286Y-58551174D01*
G37*
G36*
X80209807Y-58583900D02*
G01*
X80210413Y-58585240D01*
X80218915Y-58762242D01*
X80267193Y-59004948D01*
X80266550Y-59006842D01*
X80264588Y-59007232D01*
X80263334Y-59005971D01*
X80258488Y-58991446D01*
X80258418Y-58991172D01*
X80249549Y-58942611D01*
X80218279Y-58880474D01*
X80158642Y-58845263D01*
X80089431Y-58847884D01*
X80032627Y-58887504D01*
X80006167Y-58951774D01*
X80005497Y-58964529D01*
X80004408Y-58966206D01*
X80002411Y-58966101D01*
X80001500Y-58964424D01*
X80001500Y-58843124D01*
X79981308Y-58676267D01*
X79964607Y-58632070D01*
X79964930Y-58630096D01*
X79966801Y-58629389D01*
X79968117Y-58630217D01*
X80006856Y-58685615D01*
X80070928Y-58711906D01*
X80139046Y-58699381D01*
X80189577Y-58652020D01*
X80206475Y-58584848D01*
X80207868Y-58583412D01*
X80209807Y-58583900D01*
G37*
M02*
