G04 #@! TF.GenerationSoftware,KiCad,Pcbnew,(6.0.8)*
G04 #@! TF.CreationDate,2022-10-31T11:18:21-04:00*
G04 #@! TF.ProjectId,Unified-Daughterboard,556e6966-6965-4642-9d44-617567687465,C3*
G04 #@! TF.SameCoordinates,Original*
G04 #@! TF.FileFunction,Copper,L1,Top*
G04 #@! TF.FilePolarity,Positive*
%FSLAX46Y46*%
G04 Gerber Fmt 4.6, Leading zero omitted, Abs format (unit mm)*
G04 Created by KiCad (PCBNEW (6.0.8)) date 2022-10-31 11:18:21*
%MOMM*%
%LPD*%
G01*
G04 APERTURE LIST*
G04 Aperture macros list*
%AMRoundRect*
0 Rectangle with rounded corners*
0 $1 Rounding radius*
0 $2 $3 $4 $5 $6 $7 $8 $9 X,Y pos of 4 corners*
0 Add a 4 corners polygon primitive as box body*
4,1,4,$2,$3,$4,$5,$6,$7,$8,$9,$2,$3,0*
0 Add four circle primitives for the rounded corners*
1,1,$1+$1,$2,$3*
1,1,$1+$1,$4,$5*
1,1,$1+$1,$6,$7*
1,1,$1+$1,$8,$9*
0 Add four rect primitives between the rounded corners*
20,1,$1+$1,$2,$3,$4,$5,0*
20,1,$1+$1,$4,$5,$6,$7,0*
20,1,$1+$1,$6,$7,$8,$9,0*
20,1,$1+$1,$8,$9,$2,$3,0*%
G04 Aperture macros list end*
G04 #@! TA.AperFunction,SMDPad,CuDef*
%ADD10RoundRect,0.125000X0.000000X-0.150000X0.000000X-0.150000X0.000000X0.150000X0.000000X0.150000X0*%
G04 #@! TD*
G04 #@! TA.AperFunction,SMDPad,CuDef*
%ADD11R,0.250000X0.550000*%
G04 #@! TD*
G04 #@! TA.AperFunction,SMDPad,CuDef*
%ADD12R,0.300000X0.550000*%
G04 #@! TD*
G04 #@! TA.AperFunction,SMDPad,CuDef*
%ADD13RoundRect,0.250000X0.625000X-0.375000X0.625000X0.375000X-0.625000X0.375000X-0.625000X-0.375000X0*%
G04 #@! TD*
G04 #@! TA.AperFunction,SMDPad,CuDef*
%ADD14R,0.900000X0.500000*%
G04 #@! TD*
G04 #@! TA.AperFunction,SMDPad,CuDef*
%ADD15RoundRect,0.250000X-0.625000X0.375000X-0.625000X-0.375000X0.625000X-0.375000X0.625000X0.375000X0*%
G04 #@! TD*
G04 #@! TA.AperFunction,SMDPad,CuDef*
%ADD16RoundRect,0.250000X0.250000X0.350000X-0.250000X0.350000X-0.250000X-0.350000X0.250000X-0.350000X0*%
G04 #@! TD*
G04 #@! TA.AperFunction,ComponentPad*
%ADD17O,1.100000X2.200000*%
G04 #@! TD*
G04 #@! TA.AperFunction,ComponentPad*
%ADD18O,1.300000X1.900000*%
G04 #@! TD*
G04 #@! TA.AperFunction,SMDPad,CuDef*
%ADD19RoundRect,0.150000X0.150000X0.575000X-0.150000X0.575000X-0.150000X-0.575000X0.150000X-0.575000X0*%
G04 #@! TD*
G04 #@! TA.AperFunction,SMDPad,CuDef*
%ADD20RoundRect,0.075000X0.075000X0.650000X-0.075000X0.650000X-0.075000X-0.650000X0.075000X-0.650000X0*%
G04 #@! TD*
G04 #@! TA.AperFunction,WasherPad*
%ADD21C,3.500001*%
G04 #@! TD*
G04 #@! TA.AperFunction,ComponentPad*
%ADD22C,3.500001*%
G04 #@! TD*
G04 #@! TA.AperFunction,SMDPad,CuDef*
%ADD23R,0.600000X1.550000*%
G04 #@! TD*
G04 #@! TA.AperFunction,SMDPad,CuDef*
%ADD24R,1.200000X1.800000*%
G04 #@! TD*
G04 #@! TA.AperFunction,ViaPad*
%ADD25C,0.508000*%
G04 #@! TD*
G04 #@! TA.AperFunction,ViaPad*
%ADD26C,0.450000*%
G04 #@! TD*
G04 #@! TA.AperFunction,Conductor*
%ADD27C,0.254000*%
G04 #@! TD*
G04 #@! TA.AperFunction,Conductor*
%ADD28C,0.508000*%
G04 #@! TD*
G04 #@! TA.AperFunction,Conductor*
%ADD29C,0.152400*%
G04 #@! TD*
G04 APERTURE END LIST*
D10*
X74002500Y-66411400D03*
D11*
X74502500Y-66411400D03*
D12*
X75002500Y-66411400D03*
D11*
X75502500Y-66411400D03*
X76002500Y-66411400D03*
X74502500Y-65641400D03*
X76002500Y-65641400D03*
X75502500Y-65641400D03*
X74002500Y-65641400D03*
D12*
X75002500Y-65641400D03*
D13*
X81987500Y-64474000D03*
X81987500Y-67274000D03*
D14*
X71954500Y-66379000D03*
X71954500Y-67879000D03*
D15*
X67890500Y-64607000D03*
X67890500Y-61807000D03*
D16*
X70302500Y-66890000D03*
X67002500Y-66890000D03*
D17*
X70702500Y-63343000D03*
D18*
X70702500Y-59143000D03*
X79302500Y-59143000D03*
D19*
X78252500Y-64118000D03*
D20*
X76752500Y-64118000D03*
X76252500Y-64118000D03*
X75752500Y-64118000D03*
X75256500Y-64118000D03*
X73252500Y-64118000D03*
X73752500Y-64118000D03*
X74252500Y-64118000D03*
X74752500Y-64118000D03*
D17*
X79302500Y-63343000D03*
D19*
X77452500Y-64118000D03*
X71752500Y-64118000D03*
X72552500Y-64118000D03*
D21*
X68004500Y-58543000D03*
D22*
X82004500Y-58543000D03*
D21*
X68004500Y-71043000D03*
X82004500Y-71043000D03*
D23*
X75504500Y-68018000D03*
X76504500Y-68018000D03*
X74504500Y-68018000D03*
X73504500Y-68018000D03*
D24*
X72204500Y-71893000D03*
X77804500Y-71893000D03*
D14*
X77923500Y-67879000D03*
X77923500Y-66379000D03*
D25*
X75502500Y-68016000D03*
D26*
X75002500Y-66026400D03*
X73732500Y-66890000D03*
X76272500Y-66890000D03*
D25*
X74504500Y-68018000D03*
X72552500Y-65239000D03*
X77452500Y-65239000D03*
D27*
X75504500Y-68018000D02*
X75504500Y-68018000D01*
D28*
X76504500Y-68018000D02*
X76504500Y-68646000D01*
X76504500Y-68646000D02*
X77288500Y-69430000D01*
X77288500Y-69430000D02*
X79755300Y-69430000D01*
X79755300Y-69430000D02*
X81987500Y-67197800D01*
X68596000Y-68215500D02*
X69231000Y-68215500D01*
X68074000Y-68215500D02*
X68596000Y-68215500D01*
X67002500Y-67511000D02*
X67707000Y-68215500D01*
X67707000Y-68215500D02*
X68596000Y-68215500D01*
X67002500Y-66890000D02*
X67002500Y-67511000D01*
X67002500Y-66890000D02*
X67002500Y-65495000D01*
X67002500Y-65495000D02*
X67890500Y-64607000D01*
X69231000Y-68215500D02*
X70064500Y-69049000D01*
X70064500Y-69049000D02*
X72473500Y-69049000D01*
X71105900Y-69049000D02*
X72473500Y-69049000D01*
X71105900Y-69049000D02*
X70369300Y-69049000D01*
X72473500Y-69049000D02*
X73504500Y-68018000D01*
X67129500Y-65368000D02*
X67890500Y-64607000D01*
X79324500Y-59143000D02*
X79324500Y-59283000D01*
D27*
X76254500Y-64389000D02*
X76231501Y-64411999D01*
X76254500Y-64238000D02*
X76254500Y-64389000D01*
D29*
X76526500Y-65114445D02*
X76252500Y-64840445D01*
X76526500Y-65404800D02*
X76526500Y-65114445D01*
X77923500Y-66140000D02*
X77261700Y-66140000D01*
X76252500Y-64840445D02*
X76252500Y-63568000D01*
X77261700Y-66140000D02*
X76526500Y-65404800D01*
X74252500Y-64838828D02*
X74252500Y-63568000D01*
X74002500Y-65088828D02*
X74252500Y-64838828D01*
X74002500Y-66411400D02*
X74002500Y-65088828D01*
X75502500Y-66411400D02*
X75502500Y-65088828D01*
D27*
X74002500Y-66620000D02*
X73732500Y-66890000D01*
X74002500Y-66411400D02*
X74002500Y-66620000D01*
X75502500Y-66890000D02*
X75502500Y-65641400D01*
X75502500Y-66890000D02*
X75502500Y-65088828D01*
X75256500Y-64842828D02*
X75502500Y-65088828D01*
X75256500Y-63568000D02*
X75256500Y-64842828D01*
X75502500Y-66890000D02*
X75502500Y-66411400D01*
X75502500Y-68016000D02*
X75504500Y-68018000D01*
X75502500Y-66890000D02*
X75502500Y-68016000D01*
X73252500Y-65704000D02*
X72577500Y-66379000D01*
X72577500Y-66379000D02*
X71954500Y-66379000D01*
X73252500Y-63568000D02*
X73252500Y-65704000D01*
D29*
X73252500Y-63568000D02*
X73252500Y-65595000D01*
X75752500Y-64838828D02*
X75752500Y-63568000D01*
X76002500Y-65088828D02*
X75752500Y-64838828D01*
X76002500Y-66411400D02*
X76002500Y-65088828D01*
D27*
X76002500Y-66620000D02*
X76272500Y-66890000D01*
X76002500Y-66411400D02*
X76002500Y-66620000D01*
X74502500Y-66890000D02*
X74502500Y-65088828D01*
X74752500Y-64807432D02*
X74752500Y-63568000D01*
X74502500Y-65057432D02*
X74752500Y-64807432D01*
X74502500Y-65088828D02*
X74502500Y-65057432D01*
X74502500Y-66890000D02*
X74502500Y-66411400D01*
X74504500Y-66892000D02*
X74502500Y-66890000D01*
X74504500Y-68018000D02*
X74504500Y-66892000D01*
D28*
X69771490Y-64278636D02*
X69771490Y-62454010D01*
X67890500Y-61807000D02*
X69124480Y-61807000D01*
X69124480Y-61807000D02*
X69771490Y-62454010D01*
X72552500Y-65239000D02*
X70731854Y-65239000D01*
X70731854Y-65239000D02*
X69771490Y-64278636D01*
X77452500Y-63568000D02*
X77452500Y-64895480D01*
X72552500Y-63568000D02*
X72552500Y-64895480D01*
X72552500Y-64895480D02*
X72552500Y-65239000D01*
X77452500Y-64895480D02*
X77452500Y-65239000D01*
G04 #@! TA.AperFunction,Conductor*
G36*
X81993930Y-56698462D02*
G01*
X82004500Y-56701294D01*
X82014062Y-56698732D01*
X82023317Y-56698732D01*
X82033065Y-56697772D01*
X82047711Y-56698732D01*
X82240676Y-56711380D01*
X82250429Y-56712664D01*
X82477733Y-56757877D01*
X82487234Y-56760423D01*
X82706685Y-56834917D01*
X82715773Y-56838681D01*
X82819703Y-56889933D01*
X82923635Y-56941187D01*
X82932151Y-56946104D01*
X83124844Y-57074858D01*
X83132646Y-57080845D01*
X83306899Y-57233660D01*
X83313840Y-57240601D01*
X83465498Y-57413534D01*
X83466654Y-57414852D01*
X83472642Y-57422656D01*
X83601396Y-57615349D01*
X83606313Y-57623865D01*
X83657567Y-57727798D01*
X83708819Y-57831727D01*
X83712583Y-57840815D01*
X83787077Y-58060266D01*
X83789623Y-58069767D01*
X83834836Y-58297071D01*
X83836120Y-58306824D01*
X83849728Y-58514435D01*
X83848768Y-58524183D01*
X83848768Y-58533438D01*
X83846206Y-58543000D01*
X83848768Y-58552561D01*
X83849038Y-58553569D01*
X83851600Y-58573032D01*
X83851600Y-69524048D01*
X83834007Y-69572386D01*
X83789458Y-69598106D01*
X83738800Y-69589173D01*
X83719862Y-69573631D01*
X83616615Y-69455900D01*
X83604927Y-69442573D01*
X83382338Y-69247367D01*
X83136173Y-69082885D01*
X82965595Y-68998765D01*
X82872854Y-68953030D01*
X82872849Y-68953028D01*
X82870645Y-68951941D01*
X82674940Y-68885508D01*
X82592628Y-68857567D01*
X82592624Y-68857566D01*
X82590297Y-68856776D01*
X82299926Y-68799017D01*
X82004500Y-68779654D01*
X81709074Y-68799017D01*
X81418703Y-68856776D01*
X81416376Y-68857566D01*
X81416372Y-68857567D01*
X81334060Y-68885508D01*
X81138355Y-68951941D01*
X81136151Y-68953028D01*
X81136146Y-68953030D01*
X80896668Y-69071128D01*
X80845534Y-69076728D01*
X80802763Y-69048150D01*
X80788369Y-68998765D01*
X80810234Y-68950509D01*
X81686817Y-68073926D01*
X81733437Y-68052186D01*
X81739991Y-68051900D01*
X82644208Y-68051900D01*
X82647124Y-68051438D01*
X82647126Y-68051438D01*
X82732708Y-68037883D01*
X82738555Y-68036957D01*
X82852271Y-67979016D01*
X82942516Y-67888771D01*
X83000457Y-67775055D01*
X83015400Y-67680708D01*
X83015400Y-66867292D01*
X83000457Y-66772945D01*
X82969579Y-66712344D01*
X82945205Y-66664506D01*
X82945204Y-66664505D01*
X82942516Y-66659229D01*
X82852271Y-66568984D01*
X82841175Y-66563330D01*
X82797178Y-66540913D01*
X82738555Y-66511043D01*
X82702762Y-66505374D01*
X82647126Y-66496562D01*
X82647124Y-66496562D01*
X82644208Y-66496100D01*
X81330792Y-66496100D01*
X81327876Y-66496562D01*
X81327874Y-66496562D01*
X81272238Y-66505374D01*
X81236445Y-66511043D01*
X81177822Y-66540913D01*
X81133826Y-66563330D01*
X81122729Y-66568984D01*
X81032484Y-66659229D01*
X81029796Y-66664505D01*
X81029795Y-66664506D01*
X81005421Y-66712344D01*
X80974543Y-66772945D01*
X80959600Y-66867292D01*
X80959600Y-67619109D01*
X80942007Y-67667447D01*
X80937574Y-67672283D01*
X79608783Y-69001074D01*
X79562163Y-69022814D01*
X79555609Y-69023100D01*
X77488192Y-69023100D01*
X77439854Y-69005507D01*
X77435018Y-69001074D01*
X76979426Y-68545483D01*
X76957686Y-68498863D01*
X76957400Y-68492309D01*
X76957399Y-67231641D01*
X76957399Y-67227944D01*
X76948528Y-67183342D01*
X76914734Y-67132766D01*
X76870318Y-67103088D01*
X76870316Y-67103086D01*
X76864158Y-67098972D01*
X76819557Y-67090100D01*
X76757027Y-67090100D01*
X76708689Y-67072507D01*
X76682969Y-67027958D01*
X76682753Y-67003136D01*
X76699746Y-66895847D01*
X76700672Y-66890000D01*
X76679716Y-66757688D01*
X76629288Y-66658719D01*
X76621587Y-66643604D01*
X76621586Y-66643603D01*
X76618898Y-66638327D01*
X76524173Y-66543602D01*
X76404812Y-66482784D01*
X76385446Y-66479717D01*
X76345836Y-66473443D01*
X76300846Y-66448505D01*
X76282400Y-66399169D01*
X76282400Y-66385369D01*
X76281669Y-66381446D01*
X76280399Y-66367684D01*
X76280399Y-66121344D01*
X76271528Y-66076742D01*
X76265807Y-66068180D01*
X76264925Y-66064579D01*
X76264578Y-66063740D01*
X76264707Y-66063687D01*
X76253579Y-66018216D01*
X76265806Y-65984621D01*
X76271528Y-65976058D01*
X76280400Y-65931457D01*
X76280400Y-65664244D01*
X76297993Y-65615906D01*
X76342542Y-65590186D01*
X76393200Y-65599119D01*
X76408774Y-65611070D01*
X76756136Y-65958433D01*
X77094070Y-66296367D01*
X77096780Y-66299222D01*
X77124030Y-66329486D01*
X77131250Y-66332700D01*
X77131249Y-66332700D01*
X77146634Y-66339550D01*
X77157002Y-66345179D01*
X77177764Y-66358662D01*
X77185568Y-66359898D01*
X77185571Y-66359899D01*
X77186296Y-66360014D01*
X77205116Y-66365589D01*
X77205777Y-66365883D01*
X77205779Y-66365883D01*
X77213003Y-66369100D01*
X77237754Y-66369100D01*
X77249516Y-66370026D01*
X77257164Y-66371237D01*
X77302154Y-66396175D01*
X77320600Y-66445511D01*
X77320601Y-66543602D01*
X77320601Y-66644056D01*
X77329472Y-66688658D01*
X77363266Y-66739234D01*
X77369423Y-66743348D01*
X77407683Y-66768913D01*
X77407684Y-66768914D01*
X77413842Y-66773028D01*
X77421106Y-66774473D01*
X77442819Y-66778792D01*
X77458443Y-66781900D01*
X77923437Y-66781900D01*
X78388556Y-66781899D01*
X78433158Y-66773028D01*
X78483734Y-66739234D01*
X78517528Y-66688658D01*
X78522949Y-66661405D01*
X78525679Y-66647682D01*
X78525679Y-66647681D01*
X78526400Y-66644057D01*
X78526399Y-66113944D01*
X78517528Y-66069342D01*
X78483734Y-66018766D01*
X78439318Y-65989088D01*
X78439316Y-65989086D01*
X78433158Y-65984972D01*
X78388557Y-65976100D01*
X78117689Y-65976100D01*
X78073572Y-65960043D01*
X78072853Y-65961033D01*
X78069401Y-65958525D01*
X78069351Y-65958507D01*
X78069274Y-65958433D01*
X78066458Y-65956387D01*
X78061170Y-65950514D01*
X78053951Y-65947300D01*
X78053950Y-65947299D01*
X78010062Y-65927759D01*
X77972197Y-65910900D01*
X77387744Y-65910900D01*
X77339406Y-65893307D01*
X77334570Y-65888874D01*
X77190499Y-65744803D01*
X77168759Y-65698183D01*
X77182073Y-65648496D01*
X77224210Y-65618991D01*
X77277813Y-65624625D01*
X77314914Y-65643529D01*
X77314915Y-65643529D01*
X77320188Y-65646216D01*
X77452500Y-65667172D01*
X77584812Y-65646216D01*
X77704173Y-65585398D01*
X77798898Y-65490673D01*
X77859716Y-65371312D01*
X77873337Y-65285309D01*
X77879746Y-65244847D01*
X77880672Y-65239000D01*
X77862209Y-65122425D01*
X77860326Y-65110539D01*
X77859400Y-65098775D01*
X77859400Y-64876993D01*
X77865822Y-64846586D01*
X77900094Y-64769064D01*
X77902382Y-64763889D01*
X77905400Y-64738004D01*
X77905400Y-63497996D01*
X77902258Y-63471588D01*
X77899968Y-63466432D01*
X77898472Y-63460990D01*
X77900399Y-63460460D01*
X77897420Y-63417369D01*
X77927688Y-63375776D01*
X77959875Y-63363596D01*
X78037855Y-63353330D01*
X78037858Y-63353329D01*
X78042736Y-63352687D01*
X78182733Y-63294698D01*
X78302951Y-63202451D01*
X78395198Y-63082233D01*
X78453187Y-62942236D01*
X78472966Y-62792000D01*
X78464579Y-62728297D01*
X78453830Y-62646645D01*
X78453829Y-62646642D01*
X78453187Y-62641764D01*
X78395198Y-62501767D01*
X78302951Y-62381549D01*
X78182733Y-62289302D01*
X78042736Y-62231313D01*
X78037858Y-62230671D01*
X78037855Y-62230670D01*
X77932653Y-62216820D01*
X77932648Y-62216820D01*
X77930220Y-62216500D01*
X77854780Y-62216500D01*
X77852352Y-62216820D01*
X77852347Y-62216820D01*
X77747145Y-62230670D01*
X77747142Y-62230671D01*
X77742264Y-62231313D01*
X77602267Y-62289302D01*
X77482049Y-62381549D01*
X77389802Y-62501767D01*
X77331813Y-62641764D01*
X77331171Y-62646642D01*
X77331170Y-62646645D01*
X77320421Y-62728297D01*
X77312034Y-62792000D01*
X77331813Y-62942236D01*
X77333697Y-62946784D01*
X77385843Y-63072674D01*
X77388087Y-63124065D01*
X77356772Y-63164875D01*
X77336394Y-63172595D01*
X77336667Y-63173437D01*
X77331040Y-63175265D01*
X77325194Y-63176191D01*
X77210349Y-63234708D01*
X77188300Y-63256757D01*
X77165657Y-63272305D01*
X77127964Y-63289048D01*
X77123062Y-63293959D01*
X77123057Y-63293962D01*
X77104783Y-63312269D01*
X77058182Y-63334050D01*
X77008483Y-63320780D01*
X76998388Y-63312316D01*
X76995919Y-63309847D01*
X76991807Y-63303693D01*
X76981165Y-63296582D01*
X76936339Y-63266631D01*
X76916422Y-63253323D01*
X76909160Y-63251879D01*
X76909159Y-63251878D01*
X76853572Y-63240821D01*
X76853571Y-63240821D01*
X76849947Y-63240100D01*
X76752527Y-63240100D01*
X76655054Y-63240101D01*
X76651431Y-63240822D01*
X76651427Y-63240822D01*
X76623353Y-63246406D01*
X76588578Y-63253323D01*
X76582418Y-63257439D01*
X76582416Y-63257440D01*
X76544278Y-63282922D01*
X76494312Y-63295148D01*
X76460722Y-63282922D01*
X76422581Y-63257438D01*
X76422579Y-63257437D01*
X76416422Y-63253323D01*
X76409160Y-63251879D01*
X76409159Y-63251878D01*
X76353572Y-63240821D01*
X76353571Y-63240821D01*
X76349947Y-63240100D01*
X76252527Y-63240100D01*
X76155054Y-63240101D01*
X76151431Y-63240822D01*
X76151427Y-63240822D01*
X76123353Y-63246406D01*
X76088578Y-63253323D01*
X76082418Y-63257439D01*
X76082416Y-63257440D01*
X76044278Y-63282922D01*
X75994312Y-63295148D01*
X75960722Y-63282922D01*
X75922581Y-63257438D01*
X75922579Y-63257437D01*
X75916422Y-63253323D01*
X75909160Y-63251879D01*
X75909159Y-63251878D01*
X75853572Y-63240821D01*
X75853571Y-63240821D01*
X75849947Y-63240100D01*
X75752527Y-63240100D01*
X75655054Y-63240101D01*
X75651431Y-63240822D01*
X75651427Y-63240822D01*
X75623353Y-63246406D01*
X75588578Y-63253323D01*
X75582421Y-63257437D01*
X75582419Y-63257438D01*
X75546279Y-63281586D01*
X75496313Y-63293812D01*
X75462721Y-63281586D01*
X75448834Y-63272307D01*
X75420422Y-63253323D01*
X75413160Y-63251879D01*
X75413159Y-63251878D01*
X75357572Y-63240821D01*
X75357571Y-63240821D01*
X75353947Y-63240100D01*
X75256527Y-63240100D01*
X75159054Y-63240101D01*
X75155431Y-63240822D01*
X75155427Y-63240822D01*
X75127353Y-63246406D01*
X75092578Y-63253323D01*
X75046278Y-63284259D01*
X74996313Y-63296485D01*
X74962722Y-63284259D01*
X74916422Y-63253323D01*
X74909160Y-63251879D01*
X74909159Y-63251878D01*
X74853572Y-63240821D01*
X74853571Y-63240821D01*
X74849947Y-63240100D01*
X74752527Y-63240100D01*
X74655054Y-63240101D01*
X74651431Y-63240822D01*
X74651427Y-63240822D01*
X74623353Y-63246406D01*
X74588578Y-63253323D01*
X74582418Y-63257439D01*
X74582416Y-63257440D01*
X74544278Y-63282922D01*
X74494312Y-63295148D01*
X74460722Y-63282922D01*
X74422581Y-63257438D01*
X74422579Y-63257437D01*
X74416422Y-63253323D01*
X74409160Y-63251879D01*
X74409159Y-63251878D01*
X74353572Y-63240821D01*
X74353571Y-63240821D01*
X74349947Y-63240100D01*
X74252527Y-63240100D01*
X74155054Y-63240101D01*
X74151431Y-63240822D01*
X74151427Y-63240822D01*
X74123353Y-63246406D01*
X74088578Y-63253323D01*
X74082418Y-63257439D01*
X74082416Y-63257440D01*
X74044278Y-63282922D01*
X73994312Y-63295148D01*
X73960722Y-63282922D01*
X73922581Y-63257438D01*
X73922579Y-63257437D01*
X73916422Y-63253323D01*
X73909160Y-63251879D01*
X73909159Y-63251878D01*
X73853572Y-63240821D01*
X73853571Y-63240821D01*
X73849947Y-63240100D01*
X73752527Y-63240100D01*
X73655054Y-63240101D01*
X73651431Y-63240822D01*
X73651427Y-63240822D01*
X73623353Y-63246406D01*
X73588578Y-63253323D01*
X73582418Y-63257439D01*
X73582416Y-63257440D01*
X73544278Y-63282922D01*
X73494312Y-63295148D01*
X73460722Y-63282922D01*
X73422581Y-63257438D01*
X73422579Y-63257437D01*
X73416422Y-63253323D01*
X73409160Y-63251879D01*
X73409159Y-63251878D01*
X73353572Y-63240821D01*
X73353571Y-63240821D01*
X73349947Y-63240100D01*
X73252527Y-63240100D01*
X73155054Y-63240101D01*
X73151431Y-63240822D01*
X73151427Y-63240822D01*
X73123353Y-63246406D01*
X73088578Y-63253323D01*
X73039767Y-63285937D01*
X73023836Y-63296582D01*
X73013193Y-63303693D01*
X73009081Y-63309847D01*
X73006584Y-63312344D01*
X72959964Y-63334084D01*
X72910277Y-63320770D01*
X72900283Y-63312392D01*
X72881507Y-63293649D01*
X72881506Y-63293648D01*
X72876593Y-63288744D01*
X72841369Y-63273172D01*
X72839413Y-63272307D01*
X72816645Y-63256702D01*
X72794651Y-63234708D01*
X72679806Y-63176191D01*
X72673960Y-63175265D01*
X72668333Y-63173437D01*
X72669006Y-63171367D01*
X72631879Y-63150788D01*
X72613444Y-63102765D01*
X72619157Y-63072674D01*
X72671303Y-62946784D01*
X72673187Y-62942236D01*
X72692966Y-62792000D01*
X72684579Y-62728297D01*
X72673830Y-62646645D01*
X72673829Y-62646642D01*
X72673187Y-62641764D01*
X72615198Y-62501767D01*
X72522951Y-62381549D01*
X72402733Y-62289302D01*
X72262736Y-62231313D01*
X72257858Y-62230671D01*
X72257855Y-62230670D01*
X72152653Y-62216820D01*
X72152648Y-62216820D01*
X72150220Y-62216500D01*
X72074780Y-62216500D01*
X72072352Y-62216820D01*
X72072347Y-62216820D01*
X71967145Y-62230670D01*
X71967142Y-62230671D01*
X71962264Y-62231313D01*
X71822267Y-62289302D01*
X71702049Y-62381549D01*
X71609802Y-62501767D01*
X71551813Y-62641764D01*
X71551171Y-62646642D01*
X71551170Y-62646645D01*
X71540421Y-62728297D01*
X71532034Y-62792000D01*
X71551813Y-62942236D01*
X71609802Y-63082233D01*
X71702049Y-63202451D01*
X71822267Y-63294698D01*
X71962264Y-63352687D01*
X71967142Y-63353329D01*
X71967145Y-63353330D01*
X72017419Y-63359948D01*
X72045220Y-63363608D01*
X72090847Y-63387360D01*
X72110532Y-63434884D01*
X72105563Y-63461259D01*
X72106392Y-63461485D01*
X72104906Y-63466936D01*
X72102618Y-63472111D01*
X72099600Y-63497996D01*
X72099600Y-64738004D01*
X72099864Y-64740221D01*
X72100791Y-64748016D01*
X72089032Y-64798094D01*
X72047834Y-64828896D01*
X72026118Y-64832100D01*
X70931545Y-64832100D01*
X70883207Y-64814507D01*
X70878371Y-64810074D01*
X70200416Y-64132119D01*
X70178676Y-64085499D01*
X70178390Y-64078945D01*
X70178390Y-62421986D01*
X70178389Y-62421980D01*
X70178389Y-62389563D01*
X70170200Y-62364358D01*
X70167446Y-62352886D01*
X70164225Y-62332549D01*
X70164225Y-62332548D01*
X70163299Y-62326704D01*
X70151266Y-62303088D01*
X70146751Y-62292188D01*
X70143901Y-62283418D01*
X70138560Y-62266978D01*
X70122974Y-62245526D01*
X70116814Y-62235472D01*
X70107470Y-62217134D01*
X70107469Y-62217133D01*
X70104782Y-62211859D01*
X70081859Y-62188936D01*
X70081856Y-62188932D01*
X69789515Y-61896591D01*
X81172422Y-61896591D01*
X81181821Y-62075921D01*
X81182903Y-62079848D01*
X81182903Y-62079850D01*
X81225142Y-62233197D01*
X81229508Y-62249049D01*
X81231408Y-62252653D01*
X81231409Y-62252655D01*
X81303593Y-62389563D01*
X81313260Y-62407898D01*
X81315886Y-62411005D01*
X81315889Y-62411010D01*
X81375737Y-62481830D01*
X81429168Y-62545058D01*
X81432400Y-62547529D01*
X81432401Y-62547530D01*
X81568594Y-62651657D01*
X81571826Y-62654128D01*
X81734577Y-62730020D01*
X81909828Y-62769193D01*
X81915319Y-62769500D01*
X82047366Y-62769500D01*
X82049389Y-62769280D01*
X82049393Y-62769280D01*
X82115605Y-62762087D01*
X82181025Y-62754980D01*
X82351222Y-62697703D01*
X82354708Y-62695608D01*
X82354711Y-62695607D01*
X82501658Y-62607311D01*
X82505148Y-62605214D01*
X82526630Y-62584900D01*
X82632664Y-62484628D01*
X82635623Y-62481830D01*
X82736560Y-62333306D01*
X82803248Y-62166573D01*
X82832578Y-61989409D01*
X82823179Y-61810079D01*
X82799317Y-61723447D01*
X82776574Y-61640878D01*
X82776573Y-61640875D01*
X82775492Y-61636951D01*
X82729293Y-61549326D01*
X82693642Y-61481709D01*
X82693641Y-61481707D01*
X82691740Y-61478102D01*
X82689114Y-61474995D01*
X82689111Y-61474990D01*
X82578459Y-61344051D01*
X82575832Y-61340942D01*
X82433174Y-61231872D01*
X82270423Y-61155980D01*
X82095172Y-61116807D01*
X82089681Y-61116500D01*
X81957634Y-61116500D01*
X81955611Y-61116720D01*
X81955607Y-61116720D01*
X81889395Y-61123913D01*
X81823975Y-61131020D01*
X81653778Y-61188297D01*
X81650292Y-61190392D01*
X81650289Y-61190393D01*
X81577145Y-61234343D01*
X81499852Y-61280786D01*
X81369377Y-61404170D01*
X81268440Y-61552694D01*
X81201752Y-61719427D01*
X81172422Y-61896591D01*
X69789515Y-61896591D01*
X69389557Y-61496634D01*
X69366631Y-61473708D01*
X69343015Y-61461675D01*
X69332961Y-61455514D01*
X69311512Y-61439930D01*
X69286306Y-61431740D01*
X69275406Y-61427225D01*
X69257061Y-61417878D01*
X69257057Y-61417877D01*
X69251786Y-61415191D01*
X69225605Y-61411045D01*
X69214138Y-61408292D01*
X69188926Y-61400100D01*
X68982597Y-61400100D01*
X68934259Y-61382507D01*
X68908323Y-61336665D01*
X68904383Y-61311792D01*
X68903457Y-61305945D01*
X68845516Y-61192229D01*
X68755271Y-61101984D01*
X68641555Y-61044043D01*
X68610540Y-61039131D01*
X68550126Y-61029562D01*
X68550124Y-61029562D01*
X68547208Y-61029100D01*
X67233792Y-61029100D01*
X67230876Y-61029562D01*
X67230874Y-61029562D01*
X67170460Y-61039131D01*
X67139445Y-61044043D01*
X67025729Y-61101984D01*
X66935484Y-61192229D01*
X66877543Y-61305945D01*
X66862600Y-61400292D01*
X66862600Y-62213708D01*
X66863062Y-62216624D01*
X66863062Y-62216626D01*
X66870268Y-62262123D01*
X66877543Y-62308055D01*
X66903364Y-62358732D01*
X66926578Y-62404291D01*
X66935484Y-62421771D01*
X67025729Y-62512016D01*
X67139445Y-62569957D01*
X67145292Y-62570883D01*
X67230874Y-62584438D01*
X67230876Y-62584438D01*
X67233792Y-62584900D01*
X68547208Y-62584900D01*
X68550124Y-62584438D01*
X68550126Y-62584438D01*
X68635708Y-62570883D01*
X68641555Y-62569957D01*
X68755271Y-62512016D01*
X68845516Y-62421771D01*
X68854423Y-62404291D01*
X68903457Y-62308055D01*
X68904492Y-62308582D01*
X68932426Y-62272822D01*
X68982741Y-62262123D01*
X69025454Y-62283417D01*
X69342566Y-62600530D01*
X69364304Y-62647148D01*
X69364590Y-62653702D01*
X69364590Y-64343082D01*
X69372782Y-64368294D01*
X69375535Y-64379761D01*
X69379681Y-64405942D01*
X69382367Y-64411213D01*
X69382368Y-64411217D01*
X69391715Y-64429562D01*
X69396230Y-64440462D01*
X69404420Y-64465668D01*
X69420004Y-64487117D01*
X69426165Y-64497171D01*
X69438198Y-64520787D01*
X70489703Y-65572292D01*
X70494981Y-65574981D01*
X70494982Y-65574982D01*
X70513319Y-65584325D01*
X70523373Y-65590486D01*
X70544822Y-65606070D01*
X70550451Y-65607899D01*
X70570028Y-65614260D01*
X70580928Y-65618775D01*
X70599273Y-65628122D01*
X70599277Y-65628123D01*
X70604548Y-65630809D01*
X70630729Y-65634955D01*
X70642196Y-65637708D01*
X70667408Y-65645900D01*
X72412275Y-65645900D01*
X72424039Y-65646826D01*
X72426035Y-65647142D01*
X72552500Y-65667172D01*
X72684812Y-65646216D01*
X72720323Y-65628122D01*
X72729956Y-65623214D01*
X72781012Y-65616945D01*
X72824153Y-65644962D01*
X72839193Y-65694154D01*
X72817270Y-65743392D01*
X72574655Y-65986007D01*
X72528035Y-66007747D01*
X72479703Y-65995359D01*
X72464158Y-65984972D01*
X72419557Y-65976100D01*
X71954563Y-65976100D01*
X71489444Y-65976101D01*
X71444842Y-65984972D01*
X71394266Y-66018766D01*
X71360472Y-66069342D01*
X71351600Y-66113943D01*
X71351601Y-66644056D01*
X71360472Y-66688658D01*
X71394266Y-66739234D01*
X71400423Y-66743348D01*
X71438683Y-66768913D01*
X71438684Y-66768914D01*
X71444842Y-66773028D01*
X71452106Y-66774473D01*
X71473819Y-66778792D01*
X71489443Y-66781900D01*
X71954437Y-66781900D01*
X72419556Y-66781899D01*
X72464158Y-66773028D01*
X72514734Y-66739234D01*
X72546414Y-66691822D01*
X72587897Y-66661405D01*
X72601075Y-66658900D01*
X72603531Y-66658900D01*
X72606937Y-66658266D01*
X72609252Y-66658052D01*
X72613343Y-66657787D01*
X72633161Y-66657043D01*
X72633163Y-66657042D01*
X72640101Y-66656782D01*
X72646479Y-66654042D01*
X72646483Y-66654041D01*
X72651694Y-66651802D01*
X72667606Y-66646968D01*
X72673181Y-66645930D01*
X72673188Y-66645927D01*
X72680008Y-66644657D01*
X72685916Y-66641015D01*
X72685919Y-66641014D01*
X72702191Y-66630984D01*
X72711963Y-66625907D01*
X72716771Y-66623841D01*
X72735904Y-66615621D01*
X72740457Y-66611881D01*
X72745925Y-66606413D01*
X72759637Y-66595573D01*
X72768771Y-66589943D01*
X72781523Y-66573174D01*
X72785926Y-66567383D01*
X72792611Y-66559727D01*
X73414664Y-65937675D01*
X73418280Y-65934553D01*
X73422274Y-65932601D01*
X73453834Y-65898579D01*
X73455791Y-65896548D01*
X73468826Y-65883513D01*
X73470786Y-65880656D01*
X73472284Y-65878853D01*
X73474989Y-65875773D01*
X73488466Y-65861246D01*
X73488468Y-65861244D01*
X73493187Y-65856156D01*
X73497862Y-65844436D01*
X73505695Y-65829768D01*
X73512832Y-65819364D01*
X73514435Y-65812610D01*
X73514436Y-65812607D01*
X73518847Y-65794015D01*
X73522166Y-65783517D01*
X73531825Y-65759308D01*
X73532400Y-65753444D01*
X73532400Y-65745707D01*
X73534432Y-65728343D01*
X73535305Y-65724663D01*
X73536908Y-65717910D01*
X73533087Y-65689834D01*
X73532400Y-65679693D01*
X73532400Y-65063134D01*
X73549993Y-65014796D01*
X73594542Y-64989076D01*
X73622270Y-64989379D01*
X73655053Y-64995900D01*
X73697215Y-64995900D01*
X73745553Y-65013493D01*
X73771273Y-65058042D01*
X73771489Y-65082864D01*
X73769839Y-65093279D01*
X73769839Y-65093282D01*
X73768603Y-65101086D01*
X73770648Y-65108718D01*
X73770648Y-65108719D01*
X73770838Y-65109427D01*
X73773400Y-65128890D01*
X73773400Y-65224175D01*
X73760726Y-65265954D01*
X73733472Y-65306742D01*
X73724600Y-65351343D01*
X73724601Y-65931456D01*
X73733472Y-65976058D01*
X73737588Y-65982218D01*
X73760726Y-66016846D01*
X73773400Y-66058625D01*
X73773400Y-66076359D01*
X73766979Y-66106765D01*
X73751386Y-66142037D01*
X73727369Y-66196362D01*
X73726715Y-66201973D01*
X73726714Y-66201976D01*
X73725292Y-66214174D01*
X73724600Y-66220111D01*
X73724600Y-66344370D01*
X73723204Y-66356019D01*
X73723175Y-66356092D01*
X73722600Y-66361956D01*
X73722600Y-66399169D01*
X73705007Y-66447507D01*
X73659164Y-66473443D01*
X73619554Y-66479717D01*
X73600188Y-66482784D01*
X73480827Y-66543602D01*
X73386102Y-66638327D01*
X73383414Y-66643603D01*
X73383413Y-66643604D01*
X73375712Y-66658719D01*
X73325284Y-66757688D01*
X73304328Y-66890000D01*
X73305254Y-66895847D01*
X73322247Y-67003137D01*
X73312432Y-67053632D01*
X73272456Y-67086004D01*
X73247973Y-67090101D01*
X73189444Y-67090101D01*
X73144842Y-67098972D01*
X73094266Y-67132766D01*
X73060472Y-67183342D01*
X73051600Y-67227943D01*
X73051600Y-67864309D01*
X73034007Y-67912647D01*
X73029574Y-67917483D01*
X72326983Y-68620074D01*
X72280363Y-68641814D01*
X72273809Y-68642100D01*
X70264191Y-68642100D01*
X70215853Y-68624507D01*
X70211017Y-68620074D01*
X69473151Y-67882208D01*
X69449535Y-67870175D01*
X69439481Y-67864014D01*
X69418032Y-67848430D01*
X69392826Y-67840240D01*
X69381926Y-67835725D01*
X69363581Y-67826378D01*
X69363577Y-67826377D01*
X69358306Y-67823691D01*
X69332125Y-67819545D01*
X69320658Y-67816792D01*
X69295446Y-67808600D01*
X67906693Y-67808600D01*
X67858355Y-67791007D01*
X67853519Y-67786574D01*
X67609066Y-67542121D01*
X67587326Y-67495501D01*
X67595236Y-67454807D01*
X67637770Y-67371329D01*
X67637770Y-67371328D01*
X67640457Y-67366055D01*
X67655400Y-67271708D01*
X67655400Y-66508292D01*
X67649881Y-66473443D01*
X67641383Y-66419792D01*
X67640457Y-66413945D01*
X67582516Y-66300229D01*
X67492271Y-66209984D01*
X67476555Y-66201976D01*
X67450460Y-66188680D01*
X67415378Y-66151059D01*
X67409400Y-66121676D01*
X67409400Y-65694691D01*
X67426993Y-65646353D01*
X67431426Y-65641517D01*
X67666017Y-65406926D01*
X67712637Y-65385186D01*
X67719191Y-65384900D01*
X68547208Y-65384900D01*
X68550124Y-65384438D01*
X68550126Y-65384438D01*
X68618926Y-65373541D01*
X68641555Y-65369957D01*
X68713746Y-65333174D01*
X68749994Y-65314705D01*
X68749995Y-65314704D01*
X68755271Y-65312016D01*
X68845516Y-65221771D01*
X68851850Y-65209341D01*
X68900770Y-65113328D01*
X68903457Y-65108055D01*
X68914864Y-65036033D01*
X68917938Y-65016626D01*
X68917938Y-65016624D01*
X68918400Y-65013708D01*
X68918400Y-64200292D01*
X68903457Y-64105945D01*
X68845516Y-63992229D01*
X68755271Y-63901984D01*
X68641555Y-63844043D01*
X68610540Y-63839131D01*
X68550126Y-63829562D01*
X68550124Y-63829562D01*
X68547208Y-63829100D01*
X67233792Y-63829100D01*
X67230876Y-63829562D01*
X67230874Y-63829562D01*
X67170460Y-63839131D01*
X67139445Y-63844043D01*
X67025729Y-63901984D01*
X66935484Y-63992229D01*
X66877543Y-64105945D01*
X66862600Y-64200292D01*
X66862600Y-65013708D01*
X66863062Y-65016626D01*
X66863294Y-65019569D01*
X66862030Y-65019669D01*
X66853035Y-65065872D01*
X66841761Y-65080296D01*
X66669208Y-65252849D01*
X66666519Y-65258127D01*
X66666518Y-65258128D01*
X66657175Y-65276465D01*
X66651014Y-65286519D01*
X66635430Y-65307968D01*
X66633601Y-65313597D01*
X66627240Y-65333174D01*
X66622725Y-65344074D01*
X66613378Y-65362419D01*
X66613377Y-65362423D01*
X66610691Y-65367694D01*
X66609765Y-65373541D01*
X66606545Y-65393873D01*
X66603792Y-65405342D01*
X66595600Y-65430554D01*
X66595600Y-66121676D01*
X66578007Y-66170014D01*
X66554540Y-66188680D01*
X66528446Y-66201976D01*
X66512729Y-66209984D01*
X66422484Y-66300229D01*
X66364543Y-66413945D01*
X66363617Y-66419792D01*
X66355120Y-66473443D01*
X66349600Y-66508292D01*
X66349600Y-67271708D01*
X66364543Y-67366055D01*
X66422484Y-67479771D01*
X66512729Y-67570016D01*
X66518005Y-67572704D01*
X66518006Y-67572705D01*
X66576948Y-67602737D01*
X66610302Y-67638505D01*
X66610691Y-67638307D01*
X66610792Y-67638505D01*
X66612841Y-67642525D01*
X66612841Y-67642526D01*
X66622725Y-67661926D01*
X66627240Y-67672826D01*
X66635430Y-67698032D01*
X66651014Y-67719481D01*
X66657175Y-67729535D01*
X66669208Y-67753151D01*
X66692134Y-67776077D01*
X67441922Y-68525866D01*
X67441926Y-68525869D01*
X67464849Y-68548792D01*
X67470125Y-68551480D01*
X67470126Y-68551481D01*
X67488463Y-68560824D01*
X67498524Y-68566990D01*
X67515179Y-68579090D01*
X67515181Y-68579091D01*
X67519968Y-68582569D01*
X67525594Y-68584397D01*
X67545175Y-68590759D01*
X67556076Y-68595275D01*
X67565818Y-68600239D01*
X67574420Y-68604622D01*
X67574422Y-68604623D01*
X67579694Y-68607309D01*
X67585538Y-68608235D01*
X67585539Y-68608235D01*
X67605875Y-68611456D01*
X67617347Y-68614210D01*
X67635397Y-68620074D01*
X67642553Y-68622399D01*
X67674972Y-68622399D01*
X67674976Y-68622400D01*
X69031309Y-68622400D01*
X69079647Y-68639993D01*
X69084483Y-68644426D01*
X69822349Y-69382292D01*
X69827627Y-69384981D01*
X69827628Y-69384982D01*
X69845965Y-69394325D01*
X69856019Y-69400486D01*
X69877468Y-69416070D01*
X69883097Y-69417899D01*
X69902674Y-69424260D01*
X69913574Y-69428775D01*
X69931919Y-69438122D01*
X69931923Y-69438123D01*
X69937194Y-69440809D01*
X69963375Y-69444955D01*
X69974842Y-69447708D01*
X70000054Y-69455900D01*
X72537946Y-69455900D01*
X72563158Y-69447708D01*
X72574625Y-69444955D01*
X72600806Y-69440809D01*
X72606077Y-69438123D01*
X72606081Y-69438122D01*
X72624426Y-69428775D01*
X72635326Y-69424260D01*
X72654903Y-69417899D01*
X72660532Y-69416070D01*
X72681981Y-69400486D01*
X72692035Y-69394325D01*
X72710372Y-69384982D01*
X72710373Y-69384981D01*
X72715651Y-69382292D01*
X73130578Y-68967365D01*
X73177198Y-68945625D01*
X73188371Y-68945687D01*
X73189443Y-68945900D01*
X73504414Y-68945900D01*
X73819556Y-68945899D01*
X73864158Y-68937028D01*
X73914734Y-68903234D01*
X73941974Y-68862467D01*
X73983457Y-68832050D01*
X74034787Y-68835415D01*
X74067026Y-68862467D01*
X74094266Y-68903234D01*
X74100423Y-68907348D01*
X74138683Y-68932913D01*
X74138684Y-68932914D01*
X74144842Y-68937028D01*
X74189443Y-68945900D01*
X74504457Y-68945900D01*
X74819556Y-68945899D01*
X74864158Y-68937028D01*
X74914734Y-68903234D01*
X74941974Y-68862467D01*
X74983457Y-68832050D01*
X75034787Y-68835415D01*
X75067026Y-68862467D01*
X75094266Y-68903234D01*
X75100423Y-68907348D01*
X75138683Y-68932913D01*
X75138684Y-68932914D01*
X75144842Y-68937028D01*
X75189443Y-68945900D01*
X75504457Y-68945900D01*
X75819556Y-68945899D01*
X75864158Y-68937028D01*
X75914734Y-68903234D01*
X75941974Y-68862467D01*
X75983457Y-68832050D01*
X76034787Y-68835415D01*
X76067026Y-68862467D01*
X76094266Y-68903234D01*
X76100423Y-68907348D01*
X76138683Y-68932913D01*
X76138684Y-68932914D01*
X76144842Y-68937028D01*
X76189443Y-68945900D01*
X76197809Y-68945900D01*
X76246147Y-68963493D01*
X76250983Y-68967926D01*
X77023422Y-69740366D01*
X77023426Y-69740369D01*
X77046349Y-69763292D01*
X77051625Y-69765980D01*
X77051626Y-69765981D01*
X77069963Y-69775324D01*
X77080024Y-69781490D01*
X77096679Y-69793590D01*
X77096681Y-69793591D01*
X77101468Y-69797069D01*
X77107094Y-69798897D01*
X77126675Y-69805259D01*
X77137576Y-69809775D01*
X77147318Y-69814739D01*
X77155920Y-69819122D01*
X77155922Y-69819123D01*
X77161194Y-69821809D01*
X77167038Y-69822735D01*
X77167039Y-69822735D01*
X77187375Y-69825956D01*
X77198847Y-69828710D01*
X77217080Y-69834633D01*
X77224053Y-69836899D01*
X77256472Y-69836899D01*
X77256476Y-69836900D01*
X79819746Y-69836900D01*
X79844958Y-69828708D01*
X79856425Y-69825955D01*
X79882606Y-69821809D01*
X79887877Y-69819123D01*
X79887881Y-69819122D01*
X79906226Y-69809775D01*
X79917126Y-69805260D01*
X79936703Y-69798899D01*
X79942332Y-69797070D01*
X79948360Y-69792690D01*
X79949567Y-69792344D01*
X79952393Y-69790904D01*
X79952673Y-69791453D01*
X79997803Y-69778509D01*
X80044797Y-69799428D01*
X80067350Y-69845660D01*
X80055091Y-69895303D01*
X80045753Y-69909279D01*
X80044385Y-69911327D01*
X79913441Y-70176855D01*
X79818276Y-70457203D01*
X79760517Y-70747574D01*
X79741154Y-71043000D01*
X79760517Y-71338426D01*
X79818276Y-71628797D01*
X79913441Y-71909145D01*
X80044385Y-72174673D01*
X80208867Y-72420838D01*
X80210488Y-72422686D01*
X80210490Y-72422689D01*
X80315079Y-72541949D01*
X80404073Y-72643427D01*
X80531275Y-72754980D01*
X80535131Y-72758362D01*
X80559873Y-72803460D01*
X80549837Y-72853912D01*
X80509720Y-72886109D01*
X80485548Y-72890100D01*
X78631926Y-72890100D01*
X78583588Y-72872507D01*
X78557868Y-72827958D01*
X78557155Y-72809288D01*
X78557400Y-72808057D01*
X78557399Y-70977944D01*
X78548528Y-70933342D01*
X78514734Y-70882766D01*
X78470318Y-70853088D01*
X78470316Y-70853086D01*
X78464158Y-70848972D01*
X78419557Y-70840100D01*
X77804584Y-70840100D01*
X77189444Y-70840101D01*
X77144842Y-70848972D01*
X77094266Y-70882766D01*
X77060472Y-70933342D01*
X77051600Y-70977943D01*
X77051601Y-72808056D01*
X77051678Y-72808445D01*
X77039142Y-72857359D01*
X76997329Y-72887321D01*
X76977075Y-72890100D01*
X73031926Y-72890100D01*
X72983588Y-72872507D01*
X72957868Y-72827958D01*
X72957155Y-72809288D01*
X72957400Y-72808057D01*
X72957399Y-70977944D01*
X72948528Y-70933342D01*
X72914734Y-70882766D01*
X72870318Y-70853088D01*
X72870316Y-70853086D01*
X72864158Y-70848972D01*
X72819557Y-70840100D01*
X72204584Y-70840100D01*
X71589444Y-70840101D01*
X71544842Y-70848972D01*
X71494266Y-70882766D01*
X71460472Y-70933342D01*
X71451600Y-70977943D01*
X71451600Y-71477436D01*
X71434007Y-71525774D01*
X71389458Y-71551494D01*
X71338800Y-71542561D01*
X71309882Y-71512511D01*
X71291740Y-71478102D01*
X71289114Y-71474995D01*
X71289111Y-71474990D01*
X71178459Y-71344051D01*
X71175832Y-71340942D01*
X71033174Y-71231872D01*
X70870423Y-71155980D01*
X70695172Y-71116807D01*
X70689681Y-71116500D01*
X70557634Y-71116500D01*
X70555611Y-71116720D01*
X70555607Y-71116720D01*
X70514583Y-71121177D01*
X70423975Y-71131020D01*
X70420120Y-71132317D01*
X70420117Y-71132318D01*
X70364789Y-71150938D01*
X70313365Y-71149681D01*
X70274780Y-71115663D01*
X70265765Y-71074747D01*
X70267685Y-71045455D01*
X70267846Y-71043000D01*
X70248483Y-70747574D01*
X70190724Y-70457203D01*
X70095559Y-70176855D01*
X69964615Y-69911327D01*
X69800133Y-69665162D01*
X69741561Y-69598373D01*
X69623085Y-69463278D01*
X69604927Y-69442573D01*
X69382338Y-69247367D01*
X69136173Y-69082885D01*
X68965595Y-68998765D01*
X68872854Y-68953030D01*
X68872849Y-68953028D01*
X68870645Y-68951941D01*
X68674940Y-68885508D01*
X68592628Y-68857567D01*
X68592624Y-68857566D01*
X68590297Y-68856776D01*
X68299926Y-68799017D01*
X68004500Y-68779654D01*
X67709074Y-68799017D01*
X67418703Y-68856776D01*
X67416376Y-68857566D01*
X67416372Y-68857567D01*
X67334060Y-68885508D01*
X67138355Y-68951941D01*
X67136151Y-68953028D01*
X67136146Y-68953030D01*
X67043405Y-68998765D01*
X66872827Y-69082885D01*
X66626662Y-69247367D01*
X66404073Y-69442573D01*
X66392386Y-69455900D01*
X66289138Y-69573631D01*
X66244040Y-69598373D01*
X66193588Y-69588337D01*
X66161391Y-69548220D01*
X66157400Y-69524048D01*
X66157400Y-60061952D01*
X66174993Y-60013614D01*
X66219542Y-59987894D01*
X66270200Y-59996827D01*
X66289137Y-60012368D01*
X66404073Y-60143427D01*
X66626662Y-60338633D01*
X66872827Y-60503115D01*
X67008036Y-60569793D01*
X67136146Y-60632970D01*
X67136151Y-60632972D01*
X67138355Y-60634059D01*
X67334060Y-60700492D01*
X67416372Y-60728433D01*
X67416376Y-60728434D01*
X67418703Y-60729224D01*
X67709074Y-60786983D01*
X68004500Y-60806346D01*
X68299926Y-60786983D01*
X68590297Y-60729224D01*
X68592624Y-60728434D01*
X68592628Y-60728433D01*
X68674940Y-60700492D01*
X68870645Y-60634059D01*
X68872849Y-60632972D01*
X68872854Y-60632970D01*
X69000964Y-60569793D01*
X69136173Y-60503115D01*
X69382338Y-60338633D01*
X69604927Y-60143427D01*
X69676379Y-60061952D01*
X69798510Y-59922689D01*
X69798512Y-59922686D01*
X69800133Y-59920838D01*
X69964615Y-59674673D01*
X70095559Y-59409145D01*
X70190724Y-59128797D01*
X70248483Y-58838426D01*
X70267846Y-58543000D01*
X70248483Y-58247574D01*
X70190724Y-57957203D01*
X70095559Y-57676855D01*
X69964615Y-57411327D01*
X69800133Y-57165162D01*
X69604927Y-56942573D01*
X69473869Y-56827638D01*
X69449127Y-56782540D01*
X69459163Y-56732088D01*
X69499280Y-56699891D01*
X69523452Y-56695900D01*
X81974468Y-56695900D01*
X81993930Y-56698462D01*
G37*
G04 #@! TD.AperFunction*
G04 #@! TA.AperFunction,Conductor*
G36*
X75026533Y-65015016D02*
G01*
X75041449Y-65027676D01*
X75041914Y-65028188D01*
X75045557Y-65034099D01*
X75054768Y-65041103D01*
X75068117Y-65051254D01*
X75075773Y-65057939D01*
X75200574Y-65182740D01*
X75222314Y-65229360D01*
X75222600Y-65235914D01*
X75222600Y-67021791D01*
X75205007Y-67070129D01*
X75162071Y-67095545D01*
X75144842Y-67098972D01*
X75094266Y-67132766D01*
X75090152Y-67138923D01*
X75067026Y-67173533D01*
X75025543Y-67203950D01*
X74974213Y-67200585D01*
X74941974Y-67173533D01*
X74918848Y-67138923D01*
X74914734Y-67132766D01*
X74870318Y-67103088D01*
X74870316Y-67103086D01*
X74864158Y-67098972D01*
X74844929Y-67095147D01*
X74800952Y-67068461D01*
X74784400Y-67021392D01*
X74784400Y-66942559D01*
X74784750Y-66937801D01*
X74786193Y-66933597D01*
X74784453Y-66887239D01*
X74784400Y-66884418D01*
X74784400Y-66865969D01*
X74783765Y-66862560D01*
X74783552Y-66860258D01*
X74783286Y-66856158D01*
X74782453Y-66833956D01*
X74782400Y-66831137D01*
X74782400Y-65204519D01*
X74799993Y-65156181D01*
X74804426Y-65151344D01*
X74853563Y-65102208D01*
X74914668Y-65041103D01*
X74918280Y-65037985D01*
X74922274Y-65036033D01*
X74930027Y-65027676D01*
X74930610Y-65027047D01*
X74976382Y-65003575D01*
X75026533Y-65015016D01*
G37*
G04 #@! TD.AperFunction*
M02*
